<svg width="60" height="60" viewBox="0 0 60 60" fill="none" xmlns="http://www.w3.org/2000/svg">
<path d="M49.5307 16.5099C48.7169 17.0225 48.4735 18.0968 48.9868 18.9082C51.4574 22.8192 52.7632 27.3398 52.7632 31.9812C52.7632 45.5109 41.7411 56.5188 28.1939 56.5188C14.6466 56.5188 3.62318 45.5123 3.62318 31.9825C3.62318 18.4527 14.6453 7.44486 28.1925 7.44486C32.6644 7.44486 37.0419 8.656 40.8529 10.9481C41.6773 11.4435 42.7477 11.1779 43.2437 10.3559C43.7397 9.53249 43.4738 8.46344 42.6506 7.96809C38.2971 5.35058 33.2987 3.9668 28.1939 3.9668C12.7252 3.9668 0.140625 16.5338 0.140625 31.9825C0.140625 47.4312 12.7252 59.9995 28.1925 59.9995C43.6599 59.9995 56.2458 47.4312 56.2458 31.9825C56.2458 26.6824 54.7538 21.5204 51.9321 17.053C51.4202 16.2403 50.3444 15.9972 49.5293 16.5099H49.5307Z" fill="#F69692"/>
<path d="M28.1928 16.1118C30.4334 16.1118 32.5955 16.5674 34.6167 17.4664C35.4943 17.8569 36.5249 17.4624 36.9158 16.5846C37.3068 15.7068 36.9118 14.6789 36.0329 14.2885C33.5623 13.1902 30.9241 12.6338 28.1928 12.6338C17.5098 12.6338 8.81738 21.3137 8.81738 31.9842C8.81738 42.6548 17.5098 51.3347 28.1928 51.3347C38.8758 51.3347 47.5683 42.6548 47.5683 31.9842C47.5683 29.0467 46.9247 26.2233 45.6535 23.5939C45.2359 22.728 44.1934 22.3654 43.3291 22.7824C42.4621 23.1994 42.0991 24.2393 42.5166 25.1051C43.5578 27.2605 44.0857 29.5752 44.0857 31.9856C44.0857 40.7371 36.957 47.8566 28.1942 47.8566C19.4313 47.8566 12.3026 40.7371 12.3026 31.9856C12.3026 23.234 19.4313 16.1145 28.1942 16.1145L28.1928 16.1118Z" fill="#F69692"/>
<path d="M53.2898 6.55771V0L45.8274 6.84855V11.5404L34.5114 22.8378C32.7176 21.5988 30.5409 20.8723 28.1939 20.8723C22.0466 20.8723 17.0654 25.8471 17.0654 31.9825C17.0654 38.1179 22.0466 43.0966 28.1939 43.0966C34.3412 43.0966 39.3184 38.1179 39.3184 31.9825C39.3184 29.4473 38.4647 27.1127 37.0326 25.2428L48.2874 14.0025L52.9853 14.0118L59.86 6.57232L53.2898 6.55904V6.55771ZM34.1285 30.8736L27.924 36.2348C27.5969 36.5176 27.1926 36.6611 26.7871 36.6611C26.3429 36.6611 25.9028 36.4911 25.5677 36.1657L22.5638 33.2268C21.8764 32.5575 21.8631 31.4526 22.5373 30.766C23.2074 30.0834 24.3098 30.0701 24.9972 30.7395L26.8562 32.5575L31.8453 28.2441C32.5727 27.6133 33.6737 27.6917 34.3053 28.4181C34.9316 29.1445 34.8545 30.2441 34.1271 30.8749L34.1285 30.8736Z" fill="#F69692"/>
</svg>
