<svg width="60" height="60" viewBox="0 0 60 60" fill="none" xmlns="http://www.w3.org/2000/svg">
<path d="M29.9995 23.4907C25.4973 23.4907 21.8467 27.1366 21.8467 31.6331C21.8467 36.1295 25.4973 39.7754 29.9995 39.7754C30.7187 39.7754 31.4152 39.6811 32.0808 39.5065C31.2784 38.7573 30.7736 37.6941 30.7736 36.5098C30.7736 34.2425 32.6137 32.4048 34.8839 32.4048C36.0698 32.4048 37.1343 32.9089 37.8845 33.7102C38.0593 33.0469 38.1538 32.3498 38.1538 31.6316C38.1538 27.1352 34.5032 23.4893 30.0009 23.4893L29.9995 23.4907Z" fill="#F69692"/>
<path d="M51.9744 22.0901C47.757 18.1034 40.522 13.3506 30.0003 13.3506C21.8686 13.3506 14.3333 16.3698 8.21094 22.0816C3.60856 26.3753 1.42582 30.6535 1.33558 30.8338C1.09164 31.3196 1.08178 31.8899 1.31021 32.3828C1.39481 32.5645 3.41822 36.8652 7.95432 41.1758C12.1506 45.1639 19.3813 49.9181 30.0017 49.9181C41.3624 49.9181 48.5621 45.1498 52.6005 41.1505C56.9913 36.8019 58.6721 32.4476 58.7426 32.2645C58.9146 31.8111 58.8935 31.3083 58.6862 30.8704C58.6002 30.6901 56.5302 26.395 51.9758 22.0901H51.9744ZM10.5107 38.6889C7.51157 35.864 5.70953 32.9996 4.95657 31.6632C5.75747 30.3226 7.66526 27.4413 10.7377 24.5981C12.0547 23.38 13.4281 22.3083 14.8536 21.3775C12.8598 24.3038 11.6938 27.8356 11.6938 31.6336C11.6938 35.4316 12.9557 39.2353 15.0934 42.225C13.4859 41.2237 11.956 40.0492 10.5121 38.6875L10.5107 38.6889ZM30.0003 46.3553C21.8728 46.3553 15.2597 39.7507 15.2597 31.6336C15.2597 23.5166 21.8728 16.912 30.0003 16.912C38.1278 16.912 44.7409 23.5166 44.7409 31.6336C44.7409 39.7507 38.1278 46.3553 30.0003 46.3553ZM49.9764 38.7297C48.2872 40.383 46.4301 41.7645 44.4166 42.8826C46.8503 39.7774 48.3083 35.8738 48.3083 31.6336C48.3083 27.7272 47.0703 24.1052 44.9721 21.1311C46.5288 22.1126 48.015 23.2617 49.4251 24.584C52.5088 27.4737 54.3546 30.4057 55.0906 31.7055C54.4674 33.001 52.8811 35.8865 49.9764 38.7297Z" fill="#F69692"/>
<path d="M30.0004 9.66469C31.182 9.66469 32.1394 8.7085 32.1394 7.5284V2.13629C32.1394 0.956189 31.182 0 30.0004 0C28.8188 0 27.8613 0.956189 27.8613 2.13629V7.5284C27.8613 8.7085 28.8188 9.66469 30.0004 9.66469Z" fill="#F69692"/>
<path d="M59.2917 9.75928C58.4132 8.96926 57.061 9.03967 56.27 9.917L52.6574 13.9248C51.8664 14.8022 51.9369 16.1526 52.8154 16.9427C53.2243 17.3102 53.7361 17.4919 54.2465 17.4919C54.8317 17.4919 55.4155 17.2539 55.8371 16.7849L59.4496 12.7771C60.2406 11.8998 60.1701 10.5493 59.2917 9.75928Z" fill="#F69692"/>
<path d="M5.75308 17.4919C6.26352 17.4919 6.77537 17.3102 7.18428 16.9427C8.06273 16.1526 8.13323 14.8022 7.3422 13.9248L3.72967 9.917C2.93864 9.03967 1.5864 8.96926 0.707948 9.75928C-0.170508 10.5493 -0.241009 11.8998 0.550024 12.7771L4.16255 16.7849C4.58556 17.2539 5.16791 17.4919 5.75308 17.4919Z" fill="#F69692"/>
</svg>
