<svg width="60" height="60" viewBox="0 0 60 60" fill="none" xmlns="http://www.w3.org/2000/svg">
<path d="M36.7051 28.2348H45.8824C53.6803 28.2348 59.9999 21.9152 59.9999 14.1172H46.7257C46.7257 20.6346 42.5353 26.189 36.7103 28.2348" fill="#ED2D24"/>
<path d="M45.8811 13.2743V0C38.0832 0 31.7637 6.3196 31.7637 14.1176V23.295C33.8094 17.47 39.3638 13.2743 45.8811 13.2743Z" fill="#ED2D24"/>
<path d="M23.2896 31.7646H14.1122C6.31953 31.7646 0 38.0842 0 45.8822H13.2741C13.2741 39.3648 17.4646 33.8104 23.2896 31.7646Z" fill="#ED2D24"/>
<path d="M28.2356 23.295V14.1176C28.2356 6.3196 21.9161 0 14.1182 0V13.2743C20.6355 13.2743 26.1898 17.4648 28.2356 23.2898" fill="#ED2D24"/>
<path d="M13.2741 14.1172H0C0 21.9152 6.31953 28.2348 14.1174 28.2348H23.2948C17.4698 26.189 13.2741 20.6346 13.2741 14.1172Z" fill="#ED2D24"/>
<path d="M14.1182 46.7249V59.9991C21.9161 59.9991 28.2356 53.6796 28.2356 45.8816V36.7041C26.1898 42.5292 20.6355 46.7249 14.1182 46.7249Z" fill="#ED2D24"/>
</svg>
