<?xml version="1.0" encoding="utf-8"?>
<!-- Generator: Adobe Illustrator 27.9.6, SVG Export Plug-In . SVG Version: 9.03 Build 54986)  -->
<svg version="1.1" id="Layer_1" xmlns="http://www.w3.org/2000/svg" xmlns:xlink="http://www.w3.org/1999/xlink" x="0px" y="0px"
	 viewBox="0 0 280 280" style="enable-background:new 0 0 280 280;" xml:space="preserve">
<style type="text/css">
	.st0{fill:#FFFFFF;}
</style>
<g>
	<path class="st0" d="M171.3,148.3h42.8c36.4,0,65.9,29.5,65.9,65.9H218C218,183.7,198.5,157.8,171.3,148.3z"/>
	<path class="st0" d="M148.2,108.7V65.9c0-36.4,29.5-65.9,65.9-65.9v61.9C183.7,61.9,157.8,81.5,148.2,108.7"/>
	<path class="st0" d="M218.1,65.9H280c0,36.4-29.5,65.9-65.9,65.9h-42.8C198.5,122.2,218.1,96.3,218.1,65.9"/>
	<path class="st0" d="M108.7,131.8H65.9C29.5,131.8,0,102.3,0,65.9h61.9C61.9,96.3,81.5,122.2,108.7,131.8z"/>
	<path class="st0" d="M65.9,61.9V0c36.4,0,65.9,29.5,65.9,65.9v42.8C122.2,81.5,96.3,61.9,65.9,61.9z"/>
	<path class="st0" d="M214.1,218.1V280c-36.4,0-65.9-29.5-65.9-65.9v-42.8C157.8,198.5,183.7,218.1,214.1,218.1z"/>
</g>
</svg>
