<svg width="520" height="520" viewBox="0 0 520 520" fill="none" xmlns="http://www.w3.org/2000/svg">
<path d="M318.086 275.328H397.607C465.195 275.328 519.944 330.133 519.944 397.665H404.904C404.904 341.162 368.593 293.031 318.086 275.328Z" fill="white"/>
<path d="M275.27 201.914V122.393C275.27 54.8054 330.075 0 397.606 0V115.04C341.104 115.04 292.973 151.351 275.27 201.858" fill="white"/>
<path d="M404.96 122.337H520C520 189.925 465.195 244.73 397.664 244.73H318.142C368.649 226.97 404.96 178.839 404.96 122.393" fill="white"/>
<path d="M201.857 244.729H122.336C54.7483 244.729 -0.000488724 189.924 -0.000488724 122.393H115.04C115.04 178.895 151.351 227.026 201.857 244.729Z" fill="white"/>
<path d="M122.337 115.04V0C189.925 0 244.674 54.8053 244.674 122.336V201.858C226.971 151.351 178.783 115.04 122.337 115.04Z" fill="white"/>
<path d="M397.606 404.96V520C330.019 520 275.27 465.195 275.27 397.664V318.143C293.029 368.649 341.161 404.96 397.606 404.96Z" fill="white"/>
</svg>
