<svg width="247" height="72" viewBox="0 0 247 72" fill="none" xmlns="http://www.w3.org/2000/svg">
<g clip-path="url(#clip0_412_12423)">
<path d="M125.255 67.4033H128.712C128.548 69.282 127.057 70.644 124.761 70.644C122.466 70.644 120.652 69.4933 120.652 66.5051C120.652 64.2565 121.896 62.2781 124.691 62.2781C126.705 62.2781 127.785 63.0295 128.272 64.509H129.928C129.264 61.6088 126.775 60.916 124.62 60.916C121.885 60.916 119.09 62.5599 119.09 66.6401C119.09 68.9649 120.435 72.006 124.667 72.006C126.898 72.006 128.026 71.0432 128.718 70.233L128.982 71.7418H130.104V66.0471H125.255V67.4092V67.4033ZM114.253 71.736H116.073V61.1743H114.505V69.5755H114.476L107.689 61.1743H105.869V71.736H107.437V63.3348H107.466L114.253 71.736ZM100.767 71.736H102.335V61.1743H100.767V71.736ZM95.413 71.736H97.233V61.1743H95.6655V69.5755H95.6361L88.8494 61.1743H87.0295V71.736H88.597V63.3348H88.6263L95.413 71.736ZM81.9277 71.736H83.4952V61.1743H81.9277V71.736ZM75.9394 67.2976H71.9297L73.914 62.6244L75.9394 67.2976ZM77.8592 71.736H79.6498L74.8709 61.1743H73.0803L68.3015 71.736H69.9864L71.3308 68.6597H76.5089L77.8533 71.736H77.8592ZM57.276 71.736H58.8435V67.2565H62.9414C64.2447 67.2565 64.8612 67.8319 64.9844 69.7281C65.0608 70.9845 65.0608 71.4424 65.3073 71.7418H66.9629C66.6224 71.3544 66.5343 70.826 66.458 68.871C66.3993 67.6264 65.8651 66.7575 64.9199 66.6225V66.5931C66.0882 66.2233 66.6929 65.2898 66.6929 63.9923C66.6929 62.6949 65.9238 61.1802 63.8103 61.1802H57.276V71.7418V71.736ZM58.8435 65.8945V62.5364H63.2643C64.5207 62.5364 65.1253 63.2174 65.1253 64.2213C65.1253 64.9728 64.7555 65.8945 63.2173 65.8945H58.8377H58.8435ZM49.4385 71.736H51.006V62.5364H54.9981V61.1743H45.4463V62.5364H49.4385V71.736Z" fill="#ED2D24"/>
<path d="M73.1856 44.9762V42.8803H69.534C66.8158 42.8803 65.8353 43.8607 65.8353 45.3284C65.8353 46.7961 66.9919 47.7824 68.9997 47.7824C70.8725 47.7824 72.5222 46.8901 73.1915 44.9762M81.6573 39.3167V52.7315H73.7669V49.6141C72.5633 51.9331 70.1563 53.1366 66.6397 53.1366C60.8451 53.1366 57.6396 49.8842 57.6396 45.6924C57.6396 41.2364 60.8921 38.4713 68.3774 38.4713H73.1915C73.0565 36.0173 71.4068 34.6376 68.0663 34.6376C65.7473 34.6376 63.1641 35.4419 61.5144 36.7335L58.6612 30.9859C61.4263 29.1601 65.5242 28.1797 69.3109 28.1797C77.1543 28.1797 81.6573 31.6552 81.6573 39.3225" fill="#ED2D24"/>
<path d="M103.18 28.1797V35.8C102.423 35.712 101.888 35.665 101.266 35.665C97.8317 35.665 95.4716 37.4028 95.4716 41.6357V52.7316H87.0059V28.5789H95.0724V31.4732C96.8102 29.2893 99.6164 28.1738 103.18 28.1738" fill="#ED2D24"/>
<path d="M104.924 40.6083C104.924 33.346 110.671 28.1738 118.785 28.1738C124.268 28.1738 128.454 30.6278 130.104 34.8137L123.552 38.1543C122.395 35.8822 120.699 34.9018 118.738 34.9018C115.797 34.9018 113.478 36.9507 113.478 40.6083C113.478 44.2658 115.797 46.4028 118.738 46.4028C120.699 46.4028 122.39 45.4224 123.552 43.1503L130.104 46.4909C128.454 50.6826 124.268 53.1308 118.785 53.1308C110.671 53.1308 104.924 47.9644 104.924 40.6083Z" fill="#ED2D24"/>
<path d="M47.0723 40.6552C47.0723 44.3069 44.8472 46.4028 41.994 46.4028C39.1408 46.4028 36.9157 44.3069 36.9157 40.6552C36.9157 37.0036 39.1466 34.9077 41.994 34.9077C44.8413 34.9077 47.0723 37.0036 47.0723 40.6552ZM55.6261 40.6552C55.6261 32.9879 50.3247 28.1797 43.7729 28.1797C40.6085 28.1797 38.2484 29.0721 36.6398 30.9859V28.5789H28.5732V69.6631C33.2464 69.6631 37.039 65.8705 37.039 61.1973V50.5946C38.6887 52.2854 40.9607 53.1366 43.767 53.1366C50.3188 53.1366 55.6202 48.3225 55.6202 40.6552" fill="#ED2D24"/>
<path d="M20.9589 28.5791H12.7045C5.68883 28.5791 0.00585938 34.2679 0.00585938 41.2777H11.9472C11.9472 35.4128 15.7162 30.4167 20.9589 28.5791Z" fill="#ED2D24"/>
<path d="M25.4027 20.9589V12.7045C25.4027 5.68884 19.7139 0 12.7041 0V11.9413C18.5691 11.9413 23.5652 15.7104 25.4027 20.953" fill="#FFCE01"/>
<path d="M11.9413 12.6982H0C0 19.7139 5.68885 25.4027 12.6986 25.4027H20.953C15.7104 23.5593 11.9413 18.5632 11.9413 12.7041" fill="#F47E20"/>
<path d="M33.0234 25.4027H41.2778C48.2935 25.4027 53.9765 19.7139 53.9765 12.7041H42.0352C42.0352 18.5691 38.2661 23.5652 33.0234 25.4027Z" fill="#00B1D5"/>
<path d="M41.2777 11.9413V0C34.2621 0 28.5791 5.68884 28.5791 12.6986V20.953C30.4167 15.7104 35.4186 11.9413 41.2777 11.9413Z" fill="#84C341"/>
<path d="M12.7041 42.0352V53.9765C19.7198 53.9765 25.4027 48.2876 25.4027 41.2778V33.0234C23.5593 38.2661 18.5632 42.0352 12.7041 42.0352Z" fill="#BD1F74"/>
<path d="M243.024 52.168V50.1484H245.836V49.6611H243.024V47.7237H246.182V47.2247H242.449V52.667H246.294V52.168H243.024ZM240.27 51.7805C239.854 52.0858 239.366 52.1973 238.85 52.1973C237.511 52.1973 236.525 51.2345 236.525 49.9429C236.525 48.6513 237.511 47.6885 238.856 47.6885C239.496 47.6885 240.036 47.8764 240.494 48.3284L240.852 47.9645C240.37 47.4419 239.654 47.1778 238.832 47.1778C237.171 47.1778 235.955 48.3519 235.955 49.9429C235.955 51.5339 237.171 52.7081 238.826 52.7081C239.578 52.7081 240.312 52.4733 240.822 52.0153V49.9371H240.27V51.7688V51.7805ZM234.1 47.2247V51.6396L230.595 47.2247H230.12V52.667H230.695V48.2521L234.194 52.667H234.67V47.2247H234.1ZM225.135 50.7472L226.439 47.8236L227.742 50.7472H225.13H225.135ZM228.611 52.667H229.216L226.726 47.2247H226.157L223.668 52.667H224.267L224.918 51.211H227.948L228.599 52.667H228.611ZM222.206 47.2247V49.6494H218.801V47.2247H218.225V52.667H218.801V50.1543H222.206V52.667H222.775V47.2247H222.206ZM215.002 52.714C215.801 52.714 216.517 52.4439 216.998 51.9155L216.634 51.5515C216.194 52.0095 215.648 52.2032 215.026 52.2032C213.711 52.2032 212.724 51.2404 212.724 49.9488C212.724 48.6572 213.711 47.6944 215.026 47.6944C215.648 47.6944 216.194 47.8881 216.634 48.3402L216.998 47.9762C216.517 47.4478 215.801 47.1836 215.008 47.1836C213.37 47.1836 212.155 48.3578 212.155 49.9488C212.155 51.5398 213.37 52.714 215.002 52.714ZM207.006 50.4537H205.562V47.7237H207.006C208.092 47.7237 208.668 48.2228 208.668 49.0917C208.668 49.9605 208.092 50.4537 207.006 50.4537ZM209.331 52.667L208.004 50.8001C208.797 50.5418 209.249 49.9429 209.249 49.0917C209.249 47.9234 208.409 47.2247 207.024 47.2247H204.987V52.667H205.562V50.941H207.024C207.177 50.941 207.317 50.9351 207.458 50.9175L208.703 52.667H209.331ZM200.842 52.2032C199.527 52.2032 198.546 51.2463 198.546 49.9488C198.546 48.6513 199.527 47.6944 200.842 47.6944C202.157 47.6944 203.12 48.6513 203.12 49.9488C203.12 51.2463 202.145 52.2032 200.842 52.2032ZM200.842 52.714C202.474 52.714 203.695 51.5398 203.695 49.9488C203.695 48.3578 202.474 47.1836 200.842 47.1836C199.21 47.1836 197.983 48.3637 197.983 49.9488C197.983 51.5339 199.198 52.714 200.842 52.714ZM197.343 47.7237V47.2247H193.609V52.667H194.184V50.3598H196.996V49.8607H194.184V47.7237H197.343ZM188.296 52.714C189.687 52.714 190.327 52.0271 190.327 51.2286C190.327 49.2443 186.975 50.1484 186.975 48.6572C186.975 48.1112 187.415 47.6709 188.413 47.6709C188.895 47.6709 189.441 47.8177 189.905 48.123L190.098 47.665C189.664 47.3598 189.024 47.1836 188.413 47.1836C187.028 47.1836 186.405 47.8764 186.405 48.6748C186.405 50.6885 189.758 49.7727 189.758 51.2639C189.758 51.7981 189.317 52.2267 188.296 52.2267C187.58 52.2267 186.887 51.9449 186.499 51.5633L186.276 52.0036C186.681 52.4204 187.48 52.7081 188.296 52.7081M182.173 52.1621V50.1425H184.985V49.6553H182.173V47.7179H185.331V47.2189H181.597V52.6611H185.443V52.1621H182.173ZM178.315 52.7081C179.707 52.7081 180.347 52.0212 180.347 51.2228C180.347 49.2384 176.995 50.1425 176.995 48.6513C176.995 48.1054 177.435 47.665 178.433 47.665C178.914 47.665 179.46 47.8118 179.924 48.1171L180.118 47.6592C179.683 47.3539 179.043 47.1778 178.433 47.1778C177.047 47.1778 176.425 47.8705 176.425 48.669C176.425 50.6827 179.777 49.7668 179.777 51.258C179.777 51.7922 179.337 52.2208 178.315 52.2208C177.599 52.2208 176.906 51.939 176.519 51.5574L176.296 51.9977C176.701 52.4146 177.499 52.7022 178.315 52.7022M174.476 47.213V51.6279L170.971 47.213H170.496V52.6553H171.071V48.2404L174.57 52.6553H175.045V47.213H174.476ZM166.351 52.1856C165.036 52.1856 164.055 51.2286 164.055 49.9312C164.055 48.6337 165.036 47.6768 166.351 47.6768C167.666 47.6768 168.629 48.6337 168.629 49.9312C168.629 51.2286 167.654 52.1856 166.351 52.1856ZM166.351 52.6964C167.983 52.6964 169.204 51.5222 169.204 49.9312C169.204 48.3402 167.983 47.166 166.351 47.166C164.719 47.166 163.492 48.3461 163.492 49.9312C163.492 51.5163 164.707 52.6964 166.351 52.6964ZM160.409 50.4243H158.965V47.7061H160.409C161.496 47.7061 162.071 48.2052 162.071 49.074C162.071 49.9429 161.496 50.4243 160.409 50.4243ZM160.427 47.2071H158.39V52.6494H158.965V50.9292H160.427C161.813 50.9292 162.652 50.2306 162.652 49.074C162.652 47.9175 161.813 47.2071 160.427 47.2071ZM155.108 52.6964C156.499 52.6964 157.139 52.0095 157.139 51.211C157.139 49.2267 153.787 50.1308 153.787 48.6396C153.787 48.0936 154.227 47.6533 155.225 47.6533C155.707 47.6533 156.253 47.8001 156.717 48.1054L156.91 47.6474C156.476 47.3421 155.836 47.166 155.225 47.166C153.84 47.166 153.218 47.8588 153.218 48.6572C153.218 50.6709 156.57 49.7551 156.57 51.2463C156.57 51.7805 156.13 52.2091 155.108 52.2091C154.392 52.2091 153.699 51.9273 153.312 51.5457L153.088 51.986C153.494 52.4028 154.292 52.6905 155.108 52.6905M148.985 52.1445V50.1249H151.797V49.6376H148.985V47.7003H152.143V47.2012H148.409V52.6435H152.255V52.1445H148.985ZM144.811 50.4243H143.366V47.6944H144.811C145.897 47.6944 146.472 48.1934 146.472 49.0623C146.472 49.9312 145.897 50.4243 144.811 50.4243ZM147.135 52.6376L145.809 50.7707C146.601 50.5124 147.053 49.9136 147.053 49.0623C147.053 47.894 146.214 47.1954 144.828 47.1954H142.791V52.6376H143.366V50.9116H144.828C144.981 50.9116 145.122 50.9057 145.263 50.8881L146.507 52.6376H147.135Z" fill="#ED2D24"/>
<path d="M233.607 37.8966H233.031L231.165 40.9494L229.298 37.8966H228.681L230.859 41.4543V43.333H231.429V41.4543L233.607 37.8966ZM226.045 41.1197H224.601V38.3897H226.045C227.131 38.3897 227.707 38.8887 227.707 39.7576C227.707 40.6265 227.131 41.1197 226.045 41.1197ZM228.37 43.333L227.043 41.466C227.836 41.2077 228.288 40.6089 228.288 39.7576C228.288 38.5893 227.448 37.8907 226.063 37.8907H224.026V43.333H224.601V41.6069H226.063C226.215 41.6069 226.356 41.6011 226.497 41.5835L227.742 43.333H228.37ZM219.881 42.8692C218.566 42.8692 217.585 41.9122 217.585 40.6148C217.585 39.3173 218.566 38.3604 219.881 38.3604C221.196 38.3604 222.159 39.3173 222.159 40.6148C222.159 41.9122 221.184 42.8692 219.881 42.8692ZM219.881 43.3799C221.513 43.3799 222.734 42.2058 222.734 40.6148C222.734 39.0238 221.513 37.8496 219.881 37.8496C218.249 37.8496 217.022 39.0296 217.022 40.6148C217.022 42.1999 218.237 43.3799 219.881 43.3799ZM214.174 43.333H214.75V38.3897H216.664V37.8907H212.266V38.3897H214.18V43.333H214.174ZM208.409 41.4132L209.713 38.4895L211.016 41.4132H208.403H208.409ZM211.885 43.333H212.489L210 37.8907H209.431L206.941 43.333H207.54L208.192 41.877H211.221L211.873 43.333H211.885ZM205.48 37.8907V42.3056L201.975 37.8907H201.499V43.333H202.075V38.9181L205.574 43.333H206.049V37.8907H205.48ZM199.151 43.333H199.726V37.8907H199.151V43.333ZM196.902 37.8907L194.56 41.924L192.194 37.8907H191.718V43.333H192.27V39.0062L194.407 42.6461H194.677L196.814 38.9827V43.333H197.366V37.8907H196.891H196.902ZM189.376 43.333H189.951V37.8907H189.376V43.333ZM185.777 41.1197H184.333V38.3897H185.777C186.863 38.3897 187.439 38.8887 187.439 39.7576C187.439 40.6265 186.863 41.1197 185.777 41.1197ZM188.102 43.333L186.775 41.466C187.568 41.2077 188.02 40.6089 188.02 39.7576C188.02 38.5893 187.18 37.8907 185.795 37.8907H183.758V43.333H184.333V41.6069H185.795C185.947 41.6069 186.088 41.6011 186.229 41.5835L187.474 43.333H188.102ZM180.529 43.3799C181.327 43.3799 182.043 43.1099 182.525 42.5815L182.161 42.2175C181.72 42.6754 181.174 42.8692 180.552 42.8692C179.237 42.8692 178.251 41.9064 178.251 40.6148C178.251 39.3232 179.237 38.3604 180.552 38.3604C181.174 38.3604 181.72 38.5541 182.161 39.0062L182.525 38.6422C182.043 38.1138 181.327 37.8496 180.534 37.8496C178.896 37.8496 177.681 39.0238 177.681 40.6148C177.681 42.2058 178.896 43.3799 180.529 43.3799ZM174.887 43.3799C176.278 43.3799 176.918 42.6931 176.918 41.8946C176.918 39.9103 173.566 40.8144 173.566 39.3232C173.566 38.7772 174.006 38.3369 175.004 38.3369C175.486 38.3369 176.031 38.4837 176.495 38.7889L176.689 38.331C176.255 38.0257 175.615 37.8496 175.004 37.8496C173.619 37.8496 172.996 38.5424 172.996 39.3408C172.996 41.3545 176.349 40.4386 176.349 41.9298C176.349 42.4641 175.908 42.8927 174.887 42.8927C174.17 42.8927 173.478 42.6109 173.09 42.2293L172.867 42.6696C173.272 43.0864 174.071 43.3741 174.887 43.3741M171.041 43.3271H171.617V37.8848H171.041V43.3271ZM165.194 42.8281V38.3839H166.803C168.247 38.3839 169.18 39.2997 169.18 40.6089C169.18 41.9181 168.247 42.834 166.803 42.834H165.194V42.8281ZM164.619 43.3271H166.832C168.576 43.3271 169.75 42.2058 169.75 40.6089C169.75 39.012 168.576 37.8907 166.832 37.8907H164.619V43.333V43.3271ZM161.149 40.832H163.186V40.3506H161.149V40.832ZM159.141 43.3271H159.716V37.8848H159.141V43.3271ZM155.736 43.3271H156.311V38.3839H158.225V37.8848H153.828V38.3839H155.742V43.3271H155.736ZM152.337 37.8848V42.2997L148.832 37.8848H148.356V43.3271H148.932V38.9122L152.431 43.3271H152.906V37.8848H152.337ZM143.372 41.4073L144.675 38.4837L145.979 41.4073H143.366H143.372ZM146.848 43.3271H147.452L144.963 37.8848H144.394L141.904 43.3271H142.503L143.155 41.8711H146.184L146.836 43.3271H146.848Z" fill="#ED2D24"/>
<path d="M191.267 33.1232C190.85 33.4285 190.362 33.5401 189.846 33.5401C188.507 33.5401 187.521 32.5773 187.521 31.2857C187.521 29.9941 188.507 29.0313 189.852 29.0313C190.492 29.0313 191.032 29.2191 191.49 29.6712L191.848 29.3072C191.366 28.7847 190.65 28.5205 189.828 28.5205C188.167 28.5205 186.951 29.6947 186.951 31.2857C186.951 32.8767 188.167 34.0508 189.822 34.0508C190.574 34.0508 191.308 33.816 191.818 33.3581V31.2798H191.267V33.1115V33.1232ZM185.096 28.5675V32.9823L181.591 28.5675H181.116V34.0097H181.691V29.5949L185.19 34.0097H185.666V28.5675H185.096ZM178.768 34.0097H179.343V28.5675H178.768V34.0097ZM175.362 34.0097H175.938V29.0665H177.852V28.5675H173.454V29.0665H175.368V34.0097H175.362ZM170.237 33.5459C168.922 33.5459 167.942 32.589 167.942 31.2915C167.942 29.9941 168.922 29.0371 170.237 29.0371C171.552 29.0371 172.515 29.9941 172.515 31.2915C172.515 32.589 171.541 33.5459 170.237 33.5459ZM170.237 34.0567C171.869 34.0567 173.09 32.8825 173.09 31.2915C173.09 29.7005 171.869 28.5264 170.237 28.5264C168.605 28.5264 167.378 29.7064 167.378 31.2915C167.378 32.8767 168.593 34.0567 170.237 34.0567ZM165.611 28.5675L163.269 32.6007L160.903 28.5675H160.427V34.0097H160.979V29.6829L163.116 33.3229H163.386L165.523 29.6595V34.0097H166.075V28.5675H165.599H165.611ZM156.294 33.5401C154.979 33.5401 153.998 32.5831 153.998 31.2857C153.998 29.9882 154.979 29.0313 156.294 29.0313C157.609 29.0313 158.572 29.9882 158.572 31.2857C158.572 32.5831 157.597 33.5401 156.294 33.5401ZM156.294 34.0508C157.926 34.0508 159.147 32.8767 159.147 31.2857C159.147 29.6947 157.926 28.5205 156.294 28.5205C154.662 28.5205 153.435 29.7005 153.435 31.2857C153.435 32.8708 154.65 34.0508 156.294 34.0508ZM150.317 31.7906H148.873V29.0606H150.317C151.404 29.0606 151.979 29.5596 151.979 30.4285C151.979 31.2974 151.404 31.7906 150.317 31.7906ZM152.642 34.0039L151.315 32.1369C152.108 31.8786 152.56 31.2798 152.56 30.4285C152.56 29.2602 151.721 28.5616 150.335 28.5616H148.298V34.0039H148.873V32.2778H150.335C150.488 32.2778 150.629 32.272 150.769 32.2544L152.014 34.0039H152.642ZM144.816 31.7788H143.372V29.0606H144.816C145.903 29.0606 146.478 29.5596 146.478 30.4285C146.478 31.2974 145.903 31.7788 144.816 31.7788ZM144.834 28.5616H142.797V34.0039H143.372V32.2837H144.834C146.22 32.2837 147.059 31.5851 147.059 30.4285C147.059 29.272 146.22 28.5616 144.834 28.5616Z" fill="#ED2D24"/>
</g>
<defs>
<clipPath id="clip0_412_12423">
<rect width="246.299" height="72" fill="white"/>
</clipPath>
</defs>
</svg>
